<svg xmlns="http://www.w3.org/2000/svg" width="256" height="256" viewBox="0 0 64 64">
  <title>LayoutDock</title>
  <defs>
    <linearGradient id="key" x1="12" y1="3" x2="49" y2="58" gradientUnits="userSpaceOnUse">
      <stop stop-color="#2694ff"/>
      <stop offset="1" stop-color="#075bcb"/>
    </linearGradient>
  </defs>
  <rect x="3" y="3" width="58" height="58" rx="15" fill="#08448f"/>
  <rect x="3" y="3" width="58" height="55" rx="15" fill="url(#key)"/>
  <rect x="3.5" y="3.5" width="57" height="54" rx="14.5" fill="none" stroke="#fff" stroke-opacity=".18"/>
  <!-- Outlined letters keep the mark identical without depending on installed fonts. -->
  <path d="M12 18H18V38H26V44H12Z" fill="#fff"/>
  <path d="M30 18H38C47 18 52 23 52 31C52 39 47 44 38 44H30Z M36 24V38H38C43 38 46 36 46 31C46 26 43 24 38 24Z" fill="#fff" fill-rule="evenodd"/>
  <rect x="23" y="49" width="18" height="3" rx="1.5" fill="#fff" fill-opacity=".45"/>
</svg>
